<svg xmlns:xlink="http://www.w3.org/1999/xlink" xmlns="http://www.w3.org/2000/svg" fill="none" viewBox="0 0 61 65" height="65" width="61">
<g id="Layer_1">
<g id="Group">
<path fill="white" d="M52.46 54.1155C57.2866 48.62 60.2331 41.3069 60.2331 33.2791C60.2331 21.4893 53.8838 11.2406 44.5458 6.0256C39.558 9.05824 33.5751 8.63862 33.5751 8.63862L33.577 8.63679C43.9466 8.85668 46.2133 0.693274 46.2133 0.693274C46.2133 0.693274 42.0024 -0.27424 37.3719 4.28664C33.8133 7.79204 31.1985 8.22816 30.1797 8.24099C30.0257 8.23182 29.87 8.22266 29.7106 8.21167C29.7106 8.21167 34.2128 7.57032 35.6109 2.81521C33.9453 2.51469 32.2338 2.35711 30.4857 2.35711C14.0563 2.35711 0.738281 16.201 0.738281 33.2772C0.738281 47.9347 10.5509 60.2101 23.7204 63.3948C23.7241 63.3966 23.7296 63.3966 23.7332 63.3985C31.8545 65.6835 42.6767 64.1076 45.2843 63.6733C45.6287 63.6165 45.8871 63.3252 45.8981 62.977C45.9476 61.3223 45.7204 59.7575 45.2751 58.2787C45.2733 58.275 45.2733 58.2714 45.2714 58.2695C45.2201 58.0973 45.1651 57.925 45.1065 57.7565C44.9324 57.2452 44.7309 56.7431 44.5073 56.2539C44.5037 56.2484 44.5018 56.2411 44.5 56.2356C44.4267 56.0743 44.3497 55.9131 44.2709 55.7536C39.5286 46.1976 25.9156 40.7645 23.1175 38.4758C19.6323 35.6246 14.1186 29.6033 15.8942 19.4004C17.6679 9.1975 30.7349 8.12005 36.6169 11.0354C42.499 13.9508 43.3511 16.2211 43.3511 16.2211C47.0654 16.606 48.8575 18.2698 48.7933 23.1367C48.7292 28.0036 50.2666 34.5343 50.2666 34.5343C46.873 30.3087 48.2179 20.7674 46.8088 18.9734C46.195 18.191 45.4473 17.7879 44.7987 17.579C44.5055 17.4855 44.3094 17.874 44.5604 18.0536C46.5688 19.4902 47.025 21.8741 46.0154 22.5375C46.1913 22.0372 46.0979 21.2585 45.7222 20.4925C45.1816 19.3912 44.1353 19.5195 43.5435 19.809C42.9516 20.1004 43.0396 20.443 43.5801 21.5443C43.8385 22.072 44.1848 22.4953 44.5385 22.7629C42.827 22.5705 42.2095 20.7124 40.5988 17.7567C38.6784 14.2348 34.9641 13.7217 34.9641 13.7217C32.5948 16.7947 30.482 21.4692 39.3179 29.4732C47.0434 36.4711 43.2173 42.6372 42.1343 44.0775C41.1943 43.2786 40.3496 42.5639 39.5891 41.9244C40.0381 39.9912 39.5286 37.7318 38.0389 35.9123C36.8167 34.417 35.1712 33.5136 33.5238 33.2699C34.6654 32.5186 36.0251 32.1906 37.3994 32.4472C38.6601 32.6817 39.732 33.3762 40.5145 34.3492C40.5291 34.34 40.5438 34.3309 40.5603 34.3217C40.0417 33.6291 39.3857 33.0061 38.6014 32.4985C36.6847 31.2579 34.4547 30.9849 32.5838 31.5749C32.5838 31.5749 25.0746 33.5008 24.2188 23.4207C24.195 23.1403 23.7845 23.144 23.7681 23.4244C23.539 27.0196 24.3947 33.9754 32.8971 39.5643C40.4907 44.5576 45.0479 49.1386 47.135 54.0825C47.3384 54.5626 47.518 55.0482 47.6737 55.5374C47.681 55.5612 47.6884 55.5869 47.6975 55.6107C47.7379 55.7262 47.7782 55.8416 47.8057 55.9607C47.813 55.9973 47.8258 56.0322 47.835 56.067C47.9229 56.3785 48.0036 56.69 48.0732 57.0052C48.0823 57.0437 48.0897 57.0821 48.0988 57.1206C48.1245 57.2379 48.1483 57.3533 48.1721 57.4706C48.1813 57.5146 48.1886 57.5567 48.1978 57.6007C48.2271 57.7528 48.2546 57.9067 48.2784 58.0606C48.4836 59.3397 48.5459 60.6535 48.4763 62.0132C48.4653 62.2276 48.7677 62.2807 48.8318 62.0773C48.9106 61.8281 48.9949 61.5422 49.0737 61.2271V61.2289C49.0737 61.2289 49.0755 61.2161 49.081 61.1959C49.0993 61.1208 49.1177 61.0475 49.136 60.9687C49.365 60.0708 50.2629 56.9942 52.4417 54.1448C52.4453 54.1338 52.4527 54.1246 52.46 54.1155ZM23.7332 45.1311C33.5715 52.4498 33.9233 56.7468 33.4432 58.4858C33.1573 58.4949 32.8697 58.5004 32.5801 58.5004C18.3661 58.5004 6.84388 47.2091 6.84388 33.2791C6.84388 26.4625 9.6035 20.2799 14.0874 15.7411C10.1606 23.5178 11.9288 36.3484 23.7332 45.1311ZM48.141 40.3357C48.141 40.3357 48.3865 38.8973 50.1108 38.2761C50.1108 38.2761 49.6985 38.7415 49.4823 39.3206C49.803 39.6119 49.9807 40.2771 49.9001 41.0284C49.7957 42.0014 49.2954 42.7472 48.786 42.6922C48.2747 42.6372 47.9449 41.8035 48.0494 40.8305C48.0677 40.6582 48.1007 40.4915 48.141 40.3357ZM45.3979 41.8621C45.4492 29.0187 39.4077 18.7132 39.4077 18.7132C41.6946 21.9969 43.4042 23.0432 44.3094 23.3731C45.0094 23.6296 45.5243 24.2435 45.6324 24.9819C45.6819 25.3301 45.6636 25.5646 45.6636 25.5646C45.167 24.4487 42.7592 23.5856 44.0785 28.5588C45.3979 33.5338 48.031 36.1688 48.031 36.1688C45.5353 40.6894 47.5821 44.1929 47.5821 44.1929C46.3635 43.689 45.3979 41.8621 45.3979 41.8621ZM49.0242 50.742C48.2436 50.6998 47.5803 50.1629 47.3842 49.4062C47.1313 48.435 47.2559 46.9361 49.4347 45.483C53.0848 43.0495 52.9566 37.6072 52.9566 37.6072C48.9857 31.6519 50.1383 23.6479 50.1383 23.6479L50.4663 23.3859C50.8108 23.1092 50.9592 22.6547 50.8383 22.2296C50.3307 20.4485 49.8176 16.0287 49.8176 16.0287C49.8176 16.0287 45.4565 11.3982 40.0124 9.12604C50.6037 12.2503 58.3182 21.8815 58.3182 33.2791C58.3182 39.2216 56.2183 44.6822 52.7092 48.992C51.2927 50.5184 49.9331 50.7915 49.0242 50.742Z" id="Vector"/>
<path fill="white" d="M53.6657 58.1323C53.1398 58.1323 52.6927 58.3284 52.3207 58.7224C51.9487 59.1163 51.7637 59.5909 51.7637 60.148C51.7637 60.705 51.9487 61.1796 52.3207 61.5736C52.6909 61.9676 53.1398 62.1636 53.6657 62.1636C54.1916 62.1636 54.6387 61.9676 55.0107 61.5736C55.3809 61.1796 55.5678 60.705 55.5678 60.148C55.5678 59.5909 55.3827 59.1163 55.0107 58.7224C54.6387 58.3284 54.1916 58.1323 53.6657 58.1323ZM54.8971 61.4637C54.5563 61.8246 54.1458 62.006 53.6657 62.006C53.1856 62.006 52.7752 61.8246 52.4343 61.4637C52.0935 61.1027 51.9231 60.6629 51.9231 60.148C51.9231 59.6331 52.0935 59.1933 52.4343 58.8323C52.7752 58.4695 53.1856 58.2899 53.6657 58.2899C54.1458 58.2899 54.5563 58.4713 54.8971 58.8323C55.2379 59.1933 55.4083 59.6331 55.4083 60.148C55.4083 60.6629 55.2398 61.1008 54.8971 61.4637Z" id="Vector_2"/>
<path fill="white" d="M54.4219 59.7795C54.4219 59.5945 54.3578 59.4369 54.2277 59.3086C54.0976 59.1803 53.918 59.1162 53.6871 59.1162H53.0879V61.1758H53.4141V60.441H53.6908H53.7439L54.114 61.1758H54.4769L54.0664 60.3751C54.3028 60.2743 54.4219 60.0764 54.4219 59.7795ZM53.7072 60.1075H53.4122V59.4515H53.7072C53.83 59.4515 53.9253 59.4809 53.9931 59.5413C54.0609 59.6 54.0957 59.6806 54.0957 59.7814C54.0957 59.8822 54.0609 59.961 53.9931 60.0214C53.9253 60.0782 53.83 60.1075 53.7072 60.1075Z" id="Vector_3"/>
</g>
</g>
</svg>